<mxfile host="app.diagrams.net" agent="Mozilla/5.0 (Windows NT 10.0; Win64; x64) AppleWebKit/537.36 (KHTML, like Gecko) Chrome/128.0.0.0 Safari/537.36 Edg/128.0.0.0" version="24.7.12">
  <diagram name="Page-1" id="FTAmIUCRuc6O5GlsTc2s">
    <mxGraphModel grid="1" page="1" gridSize="10" guides="1" tooltips="1" connect="1" arrows="1" fold="1" pageScale="1" pageWidth="850" pageHeight="1100" math="0" shadow="0">
      <root>
        <mxCell id="0" />
        <mxCell id="1" parent="0" />
        <mxCell id="pAvOxP8E35Dyz1RBKoSy-22" value="&lt;font color=&quot;#ffffff&quot; style=&quot;font-size: 15px;&quot;&gt;Edit Profile&lt;/font&gt;" style="ellipse;whiteSpace=wrap;html=1;fontSize=15;fillColor=#000000;" vertex="1" parent="1">
          <mxGeometry x="365" y="80" width="120" height="50" as="geometry" />
        </mxCell>
        <mxCell id="pAvOxP8E35Dyz1RBKoSy-23" value="&lt;font color=&quot;#ffffff&quot; style=&quot;font-size: 15px;&quot;&gt;Blog Post&lt;/font&gt;" style="ellipse;whiteSpace=wrap;html=1;fontSize=15;fillColor=#000000;" vertex="1" parent="1">
          <mxGeometry x="365" y="160" width="120" height="50" as="geometry" />
        </mxCell>
        <mxCell id="pAvOxP8E35Dyz1RBKoSy-24" value="&lt;font color=&quot;#ffffff&quot; style=&quot;font-size: 15px;&quot;&gt;Login&lt;/font&gt;" style="ellipse;whiteSpace=wrap;html=1;fontSize=15;fillColor=#000000;strokeColor=#36393d;" vertex="1" parent="1">
          <mxGeometry x="420" y="379" width="120" height="50" as="geometry" />
        </mxCell>
        <mxCell id="pAvOxP8E35Dyz1RBKoSy-25" value="&lt;font color=&quot;#ffffff&quot; style=&quot;font-size: 15px;&quot;&gt;Like, share and comment&lt;/font&gt;" style="ellipse;whiteSpace=wrap;html=1;fontSize=15;fillColor=#000000;" vertex="1" parent="1">
          <mxGeometry x="560" y="110" width="120" height="50" as="geometry" />
        </mxCell>
        <mxCell id="pAvOxP8E35Dyz1RBKoSy-26" value="&lt;font color=&quot;#ffffff&quot; style=&quot;font-size: 15px;&quot;&gt;Collaborative Post&lt;/font&gt;" style="ellipse;whiteSpace=wrap;html=1;fontSize=15;fillColor=#000000;" vertex="1" parent="1">
          <mxGeometry x="510" y="290" width="120" height="50" as="geometry" />
        </mxCell>
        <mxCell id="pAvOxP8E35Dyz1RBKoSy-28" value="&lt;font color=&quot;#ffffff&quot; style=&quot;font-size: 15px;&quot;&gt;Audio&lt;/font&gt;" style="ellipse;whiteSpace=wrap;html=1;fontSize=15;fillColor=#000000;" vertex="1" parent="1">
          <mxGeometry x="180" y="210" width="120" height="50" as="geometry" />
        </mxCell>
        <mxCell id="pAvOxP8E35Dyz1RBKoSy-29" value="&lt;font color=&quot;#ffffff&quot; style=&quot;font-size: 15px;&quot;&gt;Video&lt;/font&gt;" style="ellipse;whiteSpace=wrap;html=1;fontSize=15;fillColor=#000000;" vertex="1" parent="1">
          <mxGeometry x="270" y="290" width="120" height="50" as="geometry" />
        </mxCell>
        <mxCell id="pAvOxP8E35Dyz1RBKoSy-30" value="&lt;font color=&quot;#ffffff&quot; style=&quot;font-size: 15px;&quot;&gt;Text&lt;/font&gt;" style="ellipse;whiteSpace=wrap;html=1;fontSize=15;fillColor=#000000;" vertex="1" parent="1">
          <mxGeometry x="190" y="130" width="120" height="50" as="geometry" />
        </mxCell>
        <mxCell id="pAvOxP8E35Dyz1RBKoSy-31" value="&lt;span style=&quot;font-size: 15px;&quot;&gt;&lt;font color=&quot;#ffffff&quot;&gt;Privacy Setting&lt;/font&gt;&lt;/span&gt;" style="ellipse;whiteSpace=wrap;html=1;fontSize=15;fillColor=#000000;strokeColor=#36393d;" vertex="1" parent="1">
          <mxGeometry x="330" y="540" width="120" height="50" as="geometry" />
        </mxCell>
        <mxCell id="pAvOxP8E35Dyz1RBKoSy-32" value="&lt;span style=&quot;font-size: 15px;&quot;&gt;&lt;font color=&quot;#ffffff&quot;&gt;Forget Password&lt;/font&gt;&lt;/span&gt;" style="ellipse;whiteSpace=wrap;html=1;fontSize=15;fillColor=#000000;strokeColor=#36393d;" vertex="1" parent="1">
          <mxGeometry x="520" y="450" width="120" height="50" as="geometry" />
        </mxCell>
        <mxCell id="pAvOxP8E35Dyz1RBKoSy-33" value="&lt;span style=&quot;font-size: 15px;&quot;&gt;Block&amp;nbsp;&lt;/span&gt;" style="ellipse;whiteSpace=wrap;html=1;fontSize=15;fillColor=#000000;fontColor=#ffffff;strokeColor=#314354;" vertex="1" parent="1">
          <mxGeometry x="530" y="570" width="120" height="50" as="geometry" />
        </mxCell>
        <mxCell id="pAvOxP8E35Dyz1RBKoSy-34" value="&lt;font style=&quot;font-size: 15px;&quot;&gt;Private Walls&lt;/font&gt;" style="ellipse;whiteSpace=wrap;html=1;fontSize=15;fillColor=#000000;fontColor=#ffffff;strokeColor=#314354;" vertex="1" parent="1">
          <mxGeometry x="240" y="610" width="120" height="40" as="geometry" />
        </mxCell>
        <mxCell id="pAvOxP8E35Dyz1RBKoSy-35" value="&lt;span style=&quot;font-size: 15px;&quot;&gt;&lt;font color=&quot;#ffffff&quot;&gt;Following&lt;/font&gt;&lt;/span&gt;" style="ellipse;whiteSpace=wrap;html=1;fontSize=15;fillColor=#000000;" vertex="1" parent="1">
          <mxGeometry x="140" y="690" width="120" height="50" as="geometry" />
        </mxCell>
        <mxCell id="pAvOxP8E35Dyz1RBKoSy-36" value="&lt;span style=&quot;font-size: 15px;&quot;&gt;&lt;font color=&quot;#ffffff&quot;&gt;OTP&lt;/font&gt;&lt;/span&gt;" style="ellipse;whiteSpace=wrap;html=1;fontSize=15;fillColor=#000000;strokeColor=#36393d;" vertex="1" parent="1">
          <mxGeometry x="300" y="468" width="120" height="50" as="geometry" />
        </mxCell>
        <mxCell id="pAvOxP8E35Dyz1RBKoSy-37" value="&lt;span style=&quot;font-size: 15px;&quot;&gt;&lt;font color=&quot;#ffffff&quot;&gt;Complain Box&lt;/font&gt;&lt;/span&gt;" style="ellipse;whiteSpace=wrap;html=1;fontSize=15;fillColor=#000000;" vertex="1" parent="1">
          <mxGeometry x="350" y="930" width="120" height="50" as="geometry" />
        </mxCell>
        <mxCell id="pAvOxP8E35Dyz1RBKoSy-38" value="&lt;span style=&quot;font-size: 15px;&quot;&gt;&lt;font color=&quot;#ffffff&quot;&gt;Notice Board&lt;/font&gt;&lt;/span&gt;" style="ellipse;whiteSpace=wrap;html=1;fontSize=15;fillColor=#000000;" vertex="1" parent="1">
          <mxGeometry x="560" y="900" width="120" height="50" as="geometry" />
        </mxCell>
        <mxCell id="pAvOxP8E35Dyz1RBKoSy-39" value="&lt;span style=&quot;font-size: 15px;&quot;&gt;&lt;font color=&quot;#ffffff&quot;&gt;Search and Browsing&lt;/font&gt;&lt;/span&gt;" style="ellipse;whiteSpace=wrap;html=1;fontSize=15;fillColor=#000000;" vertex="1" parent="1">
          <mxGeometry x="340" y="840" width="120" height="50" as="geometry" />
        </mxCell>
        <mxCell id="pAvOxP8E35Dyz1RBKoSy-40" value="&lt;span style=&quot;font-size: 15px;&quot;&gt;Engagement Statistics&lt;/span&gt;" style="ellipse;whiteSpace=wrap;html=1;fontSize=15;fillColor=#000000;fontColor=#ffffff;strokeColor=#314354;" vertex="1" parent="1">
          <mxGeometry x="350" y="750" width="120" height="50" as="geometry" />
        </mxCell>
        <mxCell id="pAvOxP8E35Dyz1RBKoSy-41" value="&lt;span style=&quot;font-size: 15px;&quot;&gt;&lt;font color=&quot;#ffffff&quot;&gt;Notification&lt;/font&gt;&lt;/span&gt;" style="ellipse;whiteSpace=wrap;html=1;fontSize=15;fillColor=#000000;" vertex="1" parent="1">
          <mxGeometry x="120" y="550" width="120" height="50" as="geometry" />
        </mxCell>
        <mxCell id="pAvOxP8E35Dyz1RBKoSy-42" value="&lt;span style=&quot;font-size: 15px;&quot;&gt;Change Password&lt;/span&gt;" style="ellipse;whiteSpace=wrap;html=1;fontSize=15;fillColor=#000000;fontColor=#ffffff;strokeColor=#314354;" vertex="1" parent="1">
          <mxGeometry x="305" y="670" width="120" height="50" as="geometry" />
        </mxCell>
        <mxCell id="pAvOxP8E35Dyz1RBKoSy-53" value="&lt;font color=&quot;#ffffff&quot; style=&quot;font-size: 15px;&quot;&gt;Delete Blog Post&lt;/font&gt;" style="ellipse;whiteSpace=wrap;html=1;fontSize=15;fillColor=#000000;" vertex="1" parent="1">
          <mxGeometry x="570" y="210" width="120" height="50" as="geometry" />
        </mxCell>
        <mxCell id="pAvOxP8E35Dyz1RBKoSy-57" value="Blogging Platform" style="shape=umlFrame;whiteSpace=wrap;html=1;pointerEvents=0;strokeWidth=3;" vertex="1" parent="1">
          <mxGeometry x="100" y="40" width="660" height="1050" as="geometry" />
        </mxCell>
        <mxCell id="pAvOxP8E35Dyz1RBKoSy-60" value="" style="shape=umlActor;verticalLabelPosition=bottom;verticalAlign=top;html=1;fillColor=#e51400;fontColor=#ffffff;strokeColor=#B20000;" vertex="1" parent="1">
          <mxGeometry x="770" y="780" width="50" height="80" as="geometry" />
        </mxCell>
        <mxCell id="pAvOxP8E35Dyz1RBKoSy-61" value="" style="shape=umlActor;verticalLabelPosition=bottom;verticalAlign=top;html=1;fillColor=#008a00;fontColor=#ffffff;strokeColor=#005700;" vertex="1" parent="1">
          <mxGeometry x="768" y="379" width="50" height="80" as="geometry" />
        </mxCell>
        <mxCell id="pAvOxP8E35Dyz1RBKoSy-62" value="Student" style="shape=umlActor;verticalLabelPosition=bottom;verticalAlign=top;html=1;fillColor=#0050ef;fontColor=#ffffff;strokeColor=#001DBC;" vertex="1" parent="1">
          <mxGeometry x="20" y="530" width="50" height="80" as="geometry" />
        </mxCell>
        <mxCell id="pAvOxP8E35Dyz1RBKoSy-68" value="" style="endArrow=none;html=1;rounded=1;exitX=0.001;exitY=0.468;exitDx=0;exitDy=0;exitPerimeter=0;entryX=0;entryY=0.5;entryDx=0;entryDy=0;fillColor=#0050ef;strokeColor=#001DBC;curved=0;" edge="1" parent="1" source="pAvOxP8E35Dyz1RBKoSy-57" target="pAvOxP8E35Dyz1RBKoSy-22">
          <mxGeometry width="50" height="50" relative="1" as="geometry">
            <mxPoint x="550" y="410" as="sourcePoint" />
            <mxPoint x="600" y="360" as="targetPoint" />
            <Array as="points">
              <mxPoint x="140" y="120" />
            </Array>
          </mxGeometry>
        </mxCell>
        <mxCell id="pAvOxP8E35Dyz1RBKoSy-74" value="" style="endArrow=none;html=1;rounded=1;entryX=1.002;entryY=0.266;entryDx=0;entryDy=0;entryPerimeter=0;exitX=1;exitY=0;exitDx=0;exitDy=0;fillColor=#008a00;strokeColor=#005700;curved=0;" edge="1" parent="1" source="pAvOxP8E35Dyz1RBKoSy-22" target="pAvOxP8E35Dyz1RBKoSy-57">
          <mxGeometry width="50" height="50" relative="1" as="geometry">
            <mxPoint x="590" y="450" as="sourcePoint" />
            <mxPoint x="640" y="400" as="targetPoint" />
            <Array as="points">
              <mxPoint x="700" y="90" />
            </Array>
          </mxGeometry>
        </mxCell>
        <mxCell id="pAvOxP8E35Dyz1RBKoSy-75" value="" style="endArrow=none;html=1;rounded=1;entryX=0.967;entryY=0.351;entryDx=0;entryDy=0;entryPerimeter=0;exitX=1.002;exitY=0.619;exitDx=0;exitDy=0;exitPerimeter=0;fillColor=#e51400;strokeColor=#B20000;curved=0;" edge="1" parent="1" source="pAvOxP8E35Dyz1RBKoSy-57" target="pAvOxP8E35Dyz1RBKoSy-22">
          <mxGeometry width="50" height="50" relative="1" as="geometry">
            <mxPoint x="600" y="460" as="sourcePoint" />
            <mxPoint x="650" y="410" as="targetPoint" />
            <Array as="points">
              <mxPoint x="730" y="450" />
              <mxPoint x="730" y="350" />
              <mxPoint x="680" y="98" />
            </Array>
          </mxGeometry>
        </mxCell>
        <mxCell id="pAvOxP8E35Dyz1RBKoSy-76" value="" style="endArrow=classic;html=1;rounded=0;entryX=0;entryY=0;entryDx=0;entryDy=0;exitX=1;exitY=0.5;exitDx=0;exitDy=0;" edge="1" parent="1" source="pAvOxP8E35Dyz1RBKoSy-30" target="pAvOxP8E35Dyz1RBKoSy-23">
          <mxGeometry width="50" height="50" relative="1" as="geometry">
            <mxPoint x="490" y="370" as="sourcePoint" />
            <mxPoint x="540" y="320" as="targetPoint" />
          </mxGeometry>
        </mxCell>
        <mxCell id="pAvOxP8E35Dyz1RBKoSy-78" value="" style="endArrow=classic;html=1;rounded=0;exitX=1;exitY=0;exitDx=0;exitDy=0;" edge="1" parent="1" source="pAvOxP8E35Dyz1RBKoSy-28">
          <mxGeometry width="50" height="50" relative="1" as="geometry">
            <mxPoint x="320" y="165" as="sourcePoint" />
            <mxPoint x="370" y="190" as="targetPoint" />
          </mxGeometry>
        </mxCell>
        <mxCell id="pAvOxP8E35Dyz1RBKoSy-79" value="" style="endArrow=classic;html=1;rounded=0;entryX=0.292;entryY=1;entryDx=0;entryDy=0;exitX=0.5;exitY=0;exitDx=0;exitDy=0;entryPerimeter=0;" edge="1" parent="1" source="pAvOxP8E35Dyz1RBKoSy-29" target="pAvOxP8E35Dyz1RBKoSy-23">
          <mxGeometry width="50" height="50" relative="1" as="geometry">
            <mxPoint x="330" y="175" as="sourcePoint" />
            <mxPoint x="403" y="187" as="targetPoint" />
          </mxGeometry>
        </mxCell>
        <mxCell id="pAvOxP8E35Dyz1RBKoSy-81" value="&lt;b&gt;&amp;lt;&amp;lt;Extend&amp;gt;&amp;gt;&lt;/b&gt;" style="endArrow=open;endSize=12;dashed=1;html=1;rounded=0;entryX=1;entryY=1;entryDx=0;entryDy=0;exitX=0.5;exitY=0;exitDx=0;exitDy=0;" edge="1" parent="1" source="pAvOxP8E35Dyz1RBKoSy-26" target="pAvOxP8E35Dyz1RBKoSy-23">
          <mxGeometry width="160" relative="1" as="geometry">
            <mxPoint x="430" y="340" as="sourcePoint" />
            <mxPoint x="590" y="340" as="targetPoint" />
          </mxGeometry>
        </mxCell>
        <mxCell id="pAvOxP8E35Dyz1RBKoSy-82" value="&lt;b&gt;&amp;lt;&amp;lt;Extend&amp;gt;&amp;gt;&lt;/b&gt;" style="endArrow=open;endSize=12;dashed=1;html=1;rounded=0;entryX=0.5;entryY=0;entryDx=0;entryDy=0;" edge="1" parent="1" source="pAvOxP8E35Dyz1RBKoSy-25" target="pAvOxP8E35Dyz1RBKoSy-23">
          <mxGeometry width="160" relative="1" as="geometry">
            <mxPoint x="580" y="300" as="sourcePoint" />
            <mxPoint x="477" y="213" as="targetPoint" />
            <Array as="points">
              <mxPoint x="510" y="135" />
            </Array>
          </mxGeometry>
        </mxCell>
        <mxCell id="pAvOxP8E35Dyz1RBKoSy-83" value="&lt;b&gt;&amp;lt;&amp;lt;Extend&amp;gt;&amp;gt;&lt;/b&gt;" style="endArrow=open;endSize=12;dashed=1;html=1;rounded=0;entryX=1;entryY=0.5;entryDx=0;entryDy=0;exitX=0.24;exitY=0.15;exitDx=0;exitDy=0;exitPerimeter=0;" edge="1" parent="1" source="pAvOxP8E35Dyz1RBKoSy-53" target="pAvOxP8E35Dyz1RBKoSy-23">
          <mxGeometry x="-0.0102" width="160" relative="1" as="geometry">
            <mxPoint x="590" y="310" as="sourcePoint" />
            <mxPoint x="487" y="223" as="targetPoint" />
            <mxPoint as="offset" />
          </mxGeometry>
        </mxCell>
        <mxCell id="pAvOxP8E35Dyz1RBKoSy-84" value="" style="endArrow=none;html=1;rounded=1;entryX=0;entryY=1;entryDx=0;entryDy=0;fillColor=#0050ef;strokeColor=#001DBC;curved=0;" edge="1" parent="1" target="pAvOxP8E35Dyz1RBKoSy-23">
          <mxGeometry width="50" height="50" relative="1" as="geometry">
            <mxPoint x="100" y="530" as="sourcePoint" />
            <mxPoint x="530" y="410" as="targetPoint" />
            <Array as="points">
              <mxPoint x="200" y="330" />
            </Array>
          </mxGeometry>
        </mxCell>
        <mxCell id="pAvOxP8E35Dyz1RBKoSy-86" value="" style="endArrow=none;html=1;rounded=1;exitX=1;exitY=0;exitDx=0;exitDy=0;fillColor=#008a00;strokeColor=#005700;entryX=1.003;entryY=0.314;entryDx=0;entryDy=0;entryPerimeter=0;curved=0;" edge="1" parent="1" source="pAvOxP8E35Dyz1RBKoSy-23" target="pAvOxP8E35Dyz1RBKoSy-57">
          <mxGeometry width="50" height="50" relative="1" as="geometry">
            <mxPoint x="490" y="470" as="sourcePoint" />
            <mxPoint x="540" y="420" as="targetPoint" />
            <Array as="points">
              <mxPoint x="690" y="170" />
            </Array>
          </mxGeometry>
        </mxCell>
        <mxCell id="pAvOxP8E35Dyz1RBKoSy-87" value="" style="endArrow=none;html=1;rounded=1;entryX=0;entryY=0;entryDx=0;entryDy=0;fillColor=#0050ef;strokeColor=#001DBC;curved=0;" edge="1" parent="1" target="pAvOxP8E35Dyz1RBKoSy-24">
          <mxGeometry width="50" height="50" relative="1" as="geometry">
            <mxPoint x="100" y="530" as="sourcePoint" />
            <mxPoint x="550" y="430" as="targetPoint" />
            <Array as="points">
              <mxPoint x="230" y="386" />
            </Array>
          </mxGeometry>
        </mxCell>
        <mxCell id="pAvOxP8E35Dyz1RBKoSy-89" value="" style="endArrow=none;html=1;rounded=1;exitX=1;exitY=0;exitDx=0;exitDy=0;entryX=0.996;entryY=0.333;entryDx=0;entryDy=0;entryPerimeter=0;fillColor=#008a00;strokeColor=#005700;curved=0;" edge="1" parent="1" source="pAvOxP8E35Dyz1RBKoSy-24" target="pAvOxP8E35Dyz1RBKoSy-57">
          <mxGeometry width="50" height="50" relative="1" as="geometry">
            <mxPoint x="480" y="460" as="sourcePoint" />
            <mxPoint x="530" y="410" as="targetPoint" />
          </mxGeometry>
        </mxCell>
        <mxCell id="pAvOxP8E35Dyz1RBKoSy-91" value="" style="endArrow=none;html=1;rounded=1;exitX=1;exitY=0.5;exitDx=0;exitDy=0;entryX=0.999;entryY=0.622;entryDx=0;entryDy=0;entryPerimeter=0;fillColor=#e51400;strokeColor=#B20000;curved=0;" edge="1" parent="1" source="pAvOxP8E35Dyz1RBKoSy-24" target="pAvOxP8E35Dyz1RBKoSy-57">
          <mxGeometry width="50" height="50" relative="1" as="geometry">
            <mxPoint x="480" y="460" as="sourcePoint" />
            <mxPoint x="530" y="410" as="targetPoint" />
            <Array as="points">
              <mxPoint x="670" y="460" />
            </Array>
          </mxGeometry>
        </mxCell>
        <mxCell id="pAvOxP8E35Dyz1RBKoSy-95" value="&lt;b&gt;&amp;lt;&amp;lt;Extend&amp;gt;&amp;gt;&lt;/b&gt;" style="endArrow=open;endSize=12;dashed=1;html=1;rounded=0;exitX=0;exitY=0.5;exitDx=0;exitDy=0;entryX=0.5;entryY=1;entryDx=0;entryDy=0;" edge="1" parent="1" source="pAvOxP8E35Dyz1RBKoSy-32" target="pAvOxP8E35Dyz1RBKoSy-24">
          <mxGeometry width="160" relative="1" as="geometry">
            <mxPoint x="430" y="430" as="sourcePoint" />
            <mxPoint x="590" y="430" as="targetPoint" />
          </mxGeometry>
        </mxCell>
        <mxCell id="pAvOxP8E35Dyz1RBKoSy-97" value="&lt;b&gt;&amp;lt;&amp;lt;Include&amp;gt;&amp;gt;&lt;/b&gt;" style="endArrow=open;endSize=12;dashed=1;html=1;rounded=0;entryX=1;entryY=0.5;entryDx=0;entryDy=0;exitX=0;exitY=0.5;exitDx=0;exitDy=0;" edge="1" parent="1" source="pAvOxP8E35Dyz1RBKoSy-32" target="pAvOxP8E35Dyz1RBKoSy-36">
          <mxGeometry width="160" relative="1" as="geometry">
            <mxPoint x="490" y="490" as="sourcePoint" />
            <mxPoint x="478" y="433" as="targetPoint" />
          </mxGeometry>
        </mxCell>
        <mxCell id="pAvOxP8E35Dyz1RBKoSy-98" value="" style="endArrow=none;html=1;rounded=1;exitX=-0.001;exitY=0.476;exitDx=0;exitDy=0;exitPerimeter=0;entryX=0;entryY=0;entryDx=0;entryDy=0;fillColor=#0050ef;strokeColor=#001DBC;curved=0;" edge="1" parent="1" source="pAvOxP8E35Dyz1RBKoSy-57" target="pAvOxP8E35Dyz1RBKoSy-31">
          <mxGeometry width="50" height="50" relative="1" as="geometry">
            <mxPoint x="480" y="460" as="sourcePoint" />
            <mxPoint x="530" y="410" as="targetPoint" />
            <Array as="points">
              <mxPoint x="170" y="530" />
            </Array>
          </mxGeometry>
        </mxCell>
        <mxCell id="pAvOxP8E35Dyz1RBKoSy-99" value="&lt;b&gt;&amp;lt;&amp;lt;Extend&amp;gt;&amp;gt;&lt;/b&gt;" style="endArrow=open;endSize=12;dashed=1;html=1;rounded=0;entryX=1;entryY=0.5;entryDx=0;entryDy=0;exitX=0.5;exitY=0;exitDx=0;exitDy=0;" edge="1" parent="1" source="pAvOxP8E35Dyz1RBKoSy-33" target="pAvOxP8E35Dyz1RBKoSy-31">
          <mxGeometry width="160" relative="1" as="geometry">
            <mxPoint x="430" y="430" as="sourcePoint" />
            <mxPoint x="590" y="430" as="targetPoint" />
          </mxGeometry>
        </mxCell>
        <mxCell id="pAvOxP8E35Dyz1RBKoSy-100" value="&lt;b&gt;&amp;lt;&amp;lt;Extend&amp;gt;&amp;gt;&lt;/b&gt;" style="endArrow=open;endSize=12;dashed=1;html=1;rounded=0;entryX=1;entryY=1;entryDx=0;entryDy=0;exitX=0;exitY=0;exitDx=0;exitDy=0;" edge="1" parent="1" source="pAvOxP8E35Dyz1RBKoSy-59" target="pAvOxP8E35Dyz1RBKoSy-31">
          <mxGeometry width="160" relative="1" as="geometry">
            <mxPoint x="650" y="560" as="sourcePoint" />
            <mxPoint x="500" y="565" as="targetPoint" />
          </mxGeometry>
        </mxCell>
        <mxCell id="pAvOxP8E35Dyz1RBKoSy-101" value="&lt;b&gt;&amp;lt;&amp;lt;Extend&amp;gt;&amp;gt;&lt;/b&gt;" style="endArrow=open;endSize=12;dashed=1;html=1;rounded=0;entryX=0.597;entryY=0.969;entryDx=0;entryDy=0;exitX=1;exitY=0;exitDx=0;exitDy=0;entryPerimeter=0;" edge="1" parent="1" source="pAvOxP8E35Dyz1RBKoSy-42" target="pAvOxP8E35Dyz1RBKoSy-31">
          <mxGeometry width="160" relative="1" as="geometry">
            <mxPoint x="660" y="570" as="sourcePoint" />
            <mxPoint x="510" y="575" as="targetPoint" />
          </mxGeometry>
        </mxCell>
        <mxCell id="pAvOxP8E35Dyz1RBKoSy-102" value="&lt;b&gt;&amp;lt;&amp;lt;Extend&amp;gt;&amp;gt;&lt;/b&gt;" style="endArrow=open;endSize=12;dashed=1;html=1;rounded=0;entryX=0;entryY=1;entryDx=0;entryDy=0;exitX=0.5;exitY=0;exitDx=0;exitDy=0;" edge="1" parent="1" source="pAvOxP8E35Dyz1RBKoSy-34" target="pAvOxP8E35Dyz1RBKoSy-31">
          <mxGeometry width="160" relative="1" as="geometry">
            <mxPoint x="670" y="580" as="sourcePoint" />
            <mxPoint x="520" y="585" as="targetPoint" />
          </mxGeometry>
        </mxCell>
        <mxCell id="pAvOxP8E35Dyz1RBKoSy-107" value="" style="endArrow=none;html=1;rounded=1;entryX=1;entryY=0;entryDx=0;entryDy=0;exitX=1;exitY=0.345;exitDx=0;exitDy=0;exitPerimeter=0;fillColor=#008a00;strokeColor=#005700;curved=0;" edge="1" parent="1" source="pAvOxP8E35Dyz1RBKoSy-57" target="pAvOxP8E35Dyz1RBKoSy-31">
          <mxGeometry width="50" height="50" relative="1" as="geometry">
            <mxPoint x="660" y="710" as="sourcePoint" />
            <mxPoint x="800" y="837" as="targetPoint" />
            <Array as="points">
              <mxPoint x="640" y="500" />
            </Array>
          </mxGeometry>
        </mxCell>
        <mxCell id="pAvOxP8E35Dyz1RBKoSy-108" value="" style="endArrow=none;html=1;rounded=1;exitX=0.717;exitY=0.965;exitDx=0;exitDy=0;entryX=1.004;entryY=0.741;entryDx=0;entryDy=0;entryPerimeter=0;fillColor=#e51400;strokeColor=#B20000;exitPerimeter=0;curved=0;" edge="1" parent="1" source="pAvOxP8E35Dyz1RBKoSy-31" target="pAvOxP8E35Dyz1RBKoSy-57">
          <mxGeometry width="50" height="50" relative="1" as="geometry">
            <mxPoint x="480" y="610" as="sourcePoint" />
            <mxPoint x="530" y="560" as="targetPoint" />
            <Array as="points">
              <mxPoint x="600" y="660" />
            </Array>
          </mxGeometry>
        </mxCell>
        <mxCell id="pAvOxP8E35Dyz1RBKoSy-110" value="" style="endArrow=none;html=1;rounded=1;entryX=0;entryY=0;entryDx=0;entryDy=0;exitX=0.001;exitY=0.506;exitDx=0;exitDy=0;exitPerimeter=0;fillColor=#0050ef;strokeColor=#001DBC;curved=0;" edge="1" parent="1" source="pAvOxP8E35Dyz1RBKoSy-57" target="pAvOxP8E35Dyz1RBKoSy-35">
          <mxGeometry width="50" height="50" relative="1" as="geometry">
            <mxPoint x="680" y="730" as="sourcePoint" />
            <mxPoint x="820" y="857" as="targetPoint" />
          </mxGeometry>
        </mxCell>
        <mxCell id="pAvOxP8E35Dyz1RBKoSy-111" value="&lt;b&gt;&amp;lt;&amp;lt;Include&amp;gt;&amp;gt;&lt;/b&gt;" style="endArrow=open;endSize=12;dashed=1;html=1;rounded=0;entryX=0.5;entryY=1;entryDx=0;entryDy=0;exitX=0.5;exitY=0;exitDx=0;exitDy=0;" edge="1" parent="1" source="pAvOxP8E35Dyz1RBKoSy-35" target="pAvOxP8E35Dyz1RBKoSy-41">
          <mxGeometry width="160" relative="1" as="geometry">
            <mxPoint x="280" y="510" as="sourcePoint" />
            <mxPoint x="440" y="510" as="targetPoint" />
          </mxGeometry>
        </mxCell>
        <mxCell id="pAvOxP8E35Dyz1RBKoSy-112" value="" style="endArrow=none;html=1;rounded=1;exitX=-0.001;exitY=0.613;exitDx=0;exitDy=0;exitPerimeter=0;entryX=0;entryY=0.5;entryDx=0;entryDy=0;fillColor=#0050ef;strokeColor=#001DBC;curved=0;" edge="1" parent="1" source="pAvOxP8E35Dyz1RBKoSy-57" target="pAvOxP8E35Dyz1RBKoSy-40">
          <mxGeometry width="50" height="50" relative="1" as="geometry">
            <mxPoint x="370" y="780" as="sourcePoint" />
            <mxPoint x="420" y="730" as="targetPoint" />
            <Array as="points">
              <mxPoint x="170" y="760" />
            </Array>
          </mxGeometry>
        </mxCell>
        <mxCell id="pAvOxP8E35Dyz1RBKoSy-114" value="" style="endArrow=none;html=1;rounded=1;entryX=0;entryY=0.5;entryDx=0;entryDy=0;fillColor=#0050ef;strokeColor=#001DBC;curved=0;" edge="1" parent="1" target="pAvOxP8E35Dyz1RBKoSy-39">
          <mxGeometry width="50" height="50" relative="1" as="geometry">
            <mxPoint x="100" y="690" as="sourcePoint" />
            <mxPoint x="290" y="950" as="targetPoint" />
            <Array as="points">
              <mxPoint x="210" y="840" />
            </Array>
          </mxGeometry>
        </mxCell>
        <mxCell id="pAvOxP8E35Dyz1RBKoSy-115" value="" style="endArrow=none;html=1;rounded=1;exitX=1;exitY=0.5;exitDx=0;exitDy=0;fillColor=#008a00;strokeColor=#005700;curved=0;entryX=0.999;entryY=0.461;entryDx=0;entryDy=0;entryPerimeter=0;" edge="1" parent="1" source="pAvOxP8E35Dyz1RBKoSy-39" target="pAvOxP8E35Dyz1RBKoSy-57">
          <mxGeometry width="50" height="50" relative="1" as="geometry">
            <mxPoint x="690" y="740" as="sourcePoint" />
            <mxPoint x="760" y="530" as="targetPoint" />
            <Array as="points">
              <mxPoint x="670" y="700" />
            </Array>
          </mxGeometry>
        </mxCell>
        <mxCell id="pAvOxP8E35Dyz1RBKoSy-116" value="" style="endArrow=none;html=1;rounded=1;entryX=1.001;entryY=0.763;entryDx=0;entryDy=0;entryPerimeter=0;exitX=1;exitY=0.5;exitDx=0;exitDy=0;fillColor=#e51400;strokeColor=#B20000;curved=0;" edge="1" parent="1" source="pAvOxP8E35Dyz1RBKoSy-39" target="pAvOxP8E35Dyz1RBKoSy-57">
          <mxGeometry width="50" height="50" relative="1" as="geometry">
            <mxPoint x="700" y="750" as="sourcePoint" />
            <mxPoint x="840" y="877" as="targetPoint" />
          </mxGeometry>
        </mxCell>
        <mxCell id="pAvOxP8E35Dyz1RBKoSy-117" value="" style="endArrow=none;html=1;rounded=1;entryX=1;entryY=0.5;entryDx=0;entryDy=0;exitX=0.04;exitY=0.062;exitDx=0;exitDy=0;exitPerimeter=0;fillColor=#e51400;strokeColor=#B20000;curved=0;" edge="1" parent="1" source="DIJF_asKkfsvN6r-2aJK-5" target="pAvOxP8E35Dyz1RBKoSy-38">
          <mxGeometry width="50" height="50" relative="1" as="geometry">
            <mxPoint x="100" y="960" as="sourcePoint" />
            <mxPoint x="150" y="910" as="targetPoint" />
            <Array as="points" />
          </mxGeometry>
        </mxCell>
        <mxCell id="pAvOxP8E35Dyz1RBKoSy-118" value="" style="endArrow=none;html=1;rounded=1;entryX=0.999;entryY=0.502;entryDx=0;entryDy=0;entryPerimeter=0;exitX=1;exitY=0;exitDx=0;exitDy=0;fillColor=#008a00;strokeColor=#005700;curved=0;" edge="1" parent="1" source="pAvOxP8E35Dyz1RBKoSy-38" target="pAvOxP8E35Dyz1RBKoSy-57">
          <mxGeometry width="50" height="50" relative="1" as="geometry">
            <mxPoint x="710" y="760" as="sourcePoint" />
            <mxPoint x="850" y="887" as="targetPoint" />
          </mxGeometry>
        </mxCell>
        <mxCell id="pAvOxP8E35Dyz1RBKoSy-120" value="" style="endArrow=none;html=1;rounded=1;entryX=1.004;entryY=0.854;entryDx=0;entryDy=0;entryPerimeter=0;exitX=1;exitY=0.5;exitDx=0;exitDy=0;fillColor=#e51400;strokeColor=#B20000;curved=0;" edge="1" parent="1" source="pAvOxP8E35Dyz1RBKoSy-37" target="pAvOxP8E35Dyz1RBKoSy-57">
          <mxGeometry width="50" height="50" relative="1" as="geometry">
            <mxPoint x="730" y="780" as="sourcePoint" />
            <mxPoint x="870" y="907" as="targetPoint" />
            <Array as="points">
              <mxPoint x="630" y="980" />
              <mxPoint x="710" y="960" />
            </Array>
          </mxGeometry>
        </mxCell>
        <mxCell id="DIJF_asKkfsvN6r-2aJK-3" value="&lt;font style=&quot;font-size: 21px;&quot;&gt;&lt;b&gt;Student&lt;/b&gt;&lt;/font&gt;" style="text;html=1;align=center;verticalAlign=middle;resizable=0;points=[];autosize=1;strokeColor=none;fillColor=none;" vertex="1" parent="1">
          <mxGeometry y="600" width="100" height="40" as="geometry" />
        </mxCell>
        <mxCell id="DIJF_asKkfsvN6r-2aJK-5" value="&lt;font style=&quot;font-size: 21px;&quot;&gt;&lt;b&gt;College&amp;nbsp;&lt;/b&gt;&lt;/font&gt;&lt;div&gt;&lt;font style=&quot;font-size: 21px;&quot;&gt;&lt;b&gt;Admin&lt;/b&gt;&lt;/font&gt;&lt;/div&gt;" style="text;html=1;align=center;verticalAlign=middle;resizable=0;points=[];autosize=1;strokeColor=none;fillColor=none;" vertex="1" parent="1">
          <mxGeometry x="750" y="870" width="110" height="60" as="geometry" />
        </mxCell>
        <mxCell id="DIJF_asKkfsvN6r-2aJK-6" value="&lt;font style=&quot;font-size: 21px;&quot;&gt;&lt;b&gt;Clubs/&lt;/b&gt;&lt;/font&gt;&lt;div&gt;&lt;font style=&quot;font-size: 21px;&quot;&gt;&lt;b&gt;Committees&lt;/b&gt;&lt;/font&gt;&lt;/div&gt;" style="text;html=1;align=center;verticalAlign=middle;resizable=0;points=[];autosize=1;strokeColor=none;fillColor=none;" vertex="1" parent="1">
          <mxGeometry x="716" y="458" width="140" height="60" as="geometry" />
        </mxCell>
        <mxCell id="0ahjuptaOJ0J9ITfkTHs-2" value="&lt;font color=&quot;#ffffff&quot;&gt;Online Forums&lt;/font&gt;" style="ellipse;whiteSpace=wrap;html=1;fontSize=15;fillColor=#000000;" vertex="1" parent="1">
          <mxGeometry x="350" y="1000" width="120" height="50" as="geometry" />
        </mxCell>
        <mxCell id="0ahjuptaOJ0J9ITfkTHs-3" value="&lt;font style=&quot;font-size: 15px;&quot;&gt;Polls&lt;/font&gt;" style="ellipse;whiteSpace=wrap;html=1;fontSize=15;fillColor=#000000;fontColor=#ffffff;strokeColor=#314354;" vertex="1" parent="1">
          <mxGeometry x="190" y="1030" width="120" height="40" as="geometry" />
        </mxCell>
        <mxCell id="0ahjuptaOJ0J9ITfkTHs-4" value="Announcements" style="ellipse;whiteSpace=wrap;html=1;fontSize=15;fillColor=#000000;fontColor=#ffffff;strokeColor=#314354;" vertex="1" parent="1">
          <mxGeometry x="510" y="1030" width="120" height="40" as="geometry" />
        </mxCell>
        <mxCell id="0ahjuptaOJ0J9ITfkTHs-5" value="" style="endArrow=classic;html=1;rounded=0;entryX=0;entryY=1;entryDx=0;entryDy=0;exitX=1;exitY=0.5;exitDx=0;exitDy=0;" edge="1" parent="1" source="0ahjuptaOJ0J9ITfkTHs-3" target="0ahjuptaOJ0J9ITfkTHs-2">
          <mxGeometry width="50" height="50" relative="1" as="geometry">
            <mxPoint x="250" y="1025" as="sourcePoint" />
            <mxPoint x="320" y="950" as="targetPoint" />
            <Array as="points">
              <mxPoint x="340" y="1050" />
            </Array>
          </mxGeometry>
        </mxCell>
        <mxCell id="0ahjuptaOJ0J9ITfkTHs-7" value="" style="endArrow=classic;html=1;rounded=0;entryX=1;entryY=1;entryDx=0;entryDy=0;exitX=0;exitY=0.5;exitDx=0;exitDy=0;" edge="1" parent="1" source="0ahjuptaOJ0J9ITfkTHs-4" target="0ahjuptaOJ0J9ITfkTHs-2">
          <mxGeometry width="50" height="50" relative="1" as="geometry">
            <mxPoint x="320" y="1060" as="sourcePoint" />
            <mxPoint x="378" y="1053" as="targetPoint" />
            <Array as="points">
              <mxPoint x="490" y="1050" />
            </Array>
          </mxGeometry>
        </mxCell>
        <mxCell id="0ahjuptaOJ0J9ITfkTHs-9" value="" style="endArrow=none;html=1;rounded=1;exitX=0.001;exitY=0.671;exitDx=0;exitDy=0;exitPerimeter=0;entryX=0;entryY=0;entryDx=0;entryDy=0;fillColor=#0050ef;strokeColor=#001DBC;curved=0;" edge="1" parent="1" source="pAvOxP8E35Dyz1RBKoSy-57" target="0ahjuptaOJ0J9ITfkTHs-2">
          <mxGeometry width="50" height="50" relative="1" as="geometry">
            <mxPoint x="-30" y="710" as="sourcePoint" />
            <mxPoint x="287" y="964" as="targetPoint" />
            <Array as="points">
              <mxPoint x="157" y="939" />
            </Array>
          </mxGeometry>
        </mxCell>
        <mxCell id="0ahjuptaOJ0J9ITfkTHs-11" value="" style="endArrow=none;html=1;rounded=1;entryX=1.001;entryY=0.478;entryDx=0;entryDy=0;entryPerimeter=0;exitX=1;exitY=0;exitDx=0;exitDy=0;fillColor=#008a00;strokeColor=#005700;curved=0;" edge="1" parent="1" source="0ahjuptaOJ0J9ITfkTHs-2" target="pAvOxP8E35Dyz1RBKoSy-57">
          <mxGeometry width="50" height="50" relative="1" as="geometry">
            <mxPoint x="500" y="1017" as="sourcePoint" />
            <mxPoint x="617" y="550" as="targetPoint" />
            <Array as="points">
              <mxPoint x="570" y="880" />
              <mxPoint x="670" y="790" />
            </Array>
          </mxGeometry>
        </mxCell>
        <mxCell id="Fd78flkqQobadjJygZL6-1" value="" style="endArrow=none;html=1;rounded=1;entryX=1;entryY=0.475;entryDx=0;entryDy=0;entryPerimeter=0;exitX=1;exitY=0.5;exitDx=0;exitDy=0;fillColor=#008a00;strokeColor=#005700;curved=0;" edge="1" parent="1" source="pAvOxP8E35Dyz1RBKoSy-37" target="pAvOxP8E35Dyz1RBKoSy-57">
          <mxGeometry width="50" height="50" relative="1" as="geometry">
            <mxPoint x="468" y="947" as="sourcePoint" />
            <mxPoint x="772" y="630" as="targetPoint" />
            <Array as="points">
              <mxPoint x="640" y="760" />
              <mxPoint x="680" y="710" />
              <mxPoint x="710" y="650" />
            </Array>
          </mxGeometry>
        </mxCell>
        <mxCell id="Fd78flkqQobadjJygZL6-3" value="" style="endArrow=none;html=1;rounded=1;entryX=0;entryY=0.5;entryDx=0;entryDy=0;exitX=0;exitY=0.653;exitDx=0;exitDy=0;exitPerimeter=0;fillColor=#0050ef;strokeColor=#001DBC;curved=0;" edge="1" parent="1" source="pAvOxP8E35Dyz1RBKoSy-57">
          <mxGeometry width="50" height="50" relative="1" as="geometry">
            <mxPoint x="109" y="729" as="sourcePoint" />
            <mxPoint x="360" y="965" as="targetPoint" />
            <Array as="points">
              <mxPoint x="190" y="890" />
            </Array>
          </mxGeometry>
        </mxCell>
        <mxCell id="Fd78flkqQobadjJygZL6-4" value="&lt;font color=&quot;#ffffff&quot; style=&quot;font-size: 15px;&quot;&gt;Registration&lt;/font&gt;" style="ellipse;whiteSpace=wrap;html=1;fontSize=15;fillColor=#000000;strokeColor=#36393d;" vertex="1" parent="1">
          <mxGeometry x="220" y="400" width="120" height="50" as="geometry" />
        </mxCell>
        <mxCell id="Fd78flkqQobadjJygZL6-5" value="&lt;b&gt;&amp;lt;&amp;lt;Include&amp;gt;&amp;gt;&lt;/b&gt;" style="endArrow=open;endSize=12;dashed=1;html=1;rounded=0;entryX=0;entryY=0.5;entryDx=0;entryDy=0;exitX=0.5;exitY=1;exitDx=0;exitDy=0;" edge="1" parent="1" source="Fd78flkqQobadjJygZL6-4" target="pAvOxP8E35Dyz1RBKoSy-36">
          <mxGeometry width="160" relative="1" as="geometry">
            <mxPoint x="305" y="458" as="sourcePoint" />
            <mxPoint x="195" y="468" as="targetPoint" />
          </mxGeometry>
        </mxCell>
        <mxCell id="Fd78flkqQobadjJygZL6-7" value="" style="endArrow=none;html=1;rounded=1;exitX=-0.002;exitY=0.478;exitDx=0;exitDy=0;exitPerimeter=0;entryX=0;entryY=1;entryDx=0;entryDy=0;fillColor=#0050ef;strokeColor=#001DBC;curved=0;" edge="1" parent="1" source="pAvOxP8E35Dyz1RBKoSy-57" target="Fd78flkqQobadjJygZL6-4">
          <mxGeometry width="50" height="50" relative="1" as="geometry">
            <mxPoint x="100" y="540" as="sourcePoint" />
            <mxPoint x="389" y="537" as="targetPoint" />
            <Array as="points" />
          </mxGeometry>
        </mxCell>
        <mxCell id="Fd78flkqQobadjJygZL6-8" value="" style="endArrow=none;html=1;rounded=1;exitX=0.5;exitY=0;exitDx=0;exitDy=0;entryX=0.998;entryY=0.319;entryDx=0;entryDy=0;entryPerimeter=0;fillColor=#008a00;strokeColor=#005700;curved=0;" edge="1" parent="1" source="Fd78flkqQobadjJygZL6-4" target="pAvOxP8E35Dyz1RBKoSy-57">
          <mxGeometry width="50" height="50" relative="1" as="geometry">
            <mxPoint x="485" y="360" as="sourcePoint" />
            <mxPoint x="720" y="364" as="targetPoint" />
            <Array as="points">
              <mxPoint x="390" y="360" />
              <mxPoint x="620" y="360" />
            </Array>
          </mxGeometry>
        </mxCell>
        <mxCell id="Fd78flkqQobadjJygZL6-9" value="" style="endArrow=none;html=1;rounded=1;exitX=1;exitY=0.5;exitDx=0;exitDy=0;entryX=0.998;entryY=0.672;entryDx=0;entryDy=0;entryPerimeter=0;fillColor=#e51400;strokeColor=#B20000;curved=0;" edge="1" parent="1" source="Fd78flkqQobadjJygZL6-4" target="pAvOxP8E35Dyz1RBKoSy-57">
          <mxGeometry width="50" height="50" relative="1" as="geometry">
            <mxPoint x="330" y="429" as="sourcePoint" />
            <mxPoint x="549" y="718" as="targetPoint" />
            <Array as="points">
              <mxPoint x="460" y="485" />
              <mxPoint x="670" y="570" />
            </Array>
          </mxGeometry>
        </mxCell>
        <mxCell id="pAvOxP8E35Dyz1RBKoSy-59" value="&lt;span style=&quot;font-size: 15px;&quot;&gt;Reports&lt;/span&gt;" style="ellipse;whiteSpace=wrap;html=1;fontSize=15;fillColor=#000000;fontColor=#ffffff;strokeColor=#314354;" vertex="1" parent="1">
          <mxGeometry x="460" y="660" width="120" height="50" as="geometry" />
        </mxCell>
        <mxCell id="Fd78flkqQobadjJygZL6-11" value="" style="endArrow=none;html=1;rounded=1;entryX=1.003;entryY=0.417;entryDx=0;entryDy=0;entryPerimeter=0;exitX=1;exitY=0.5;exitDx=0;exitDy=0;fillColor=#008a00;strokeColor=#005700;curved=0;" edge="1" parent="1" source="pAvOxP8E35Dyz1RBKoSy-40" target="pAvOxP8E35Dyz1RBKoSy-57">
          <mxGeometry width="50" height="50" relative="1" as="geometry">
            <mxPoint x="470" y="807" as="sourcePoint" />
            <mxPoint x="774" y="490" as="targetPoint" />
            <Array as="points">
              <mxPoint x="680" y="642" />
            </Array>
          </mxGeometry>
        </mxCell>
      </root>
    </mxGraphModel>
  </diagram>
</mxfile>
